<?xml version="1.0" encoding="UTF-8" standalone="no"?>
<?xml-stylesheet href="feb-icons.css" type="text/css"?>

<svg xmlns="http://www.w3.org/2000/svg" width="32" height="32">

  <title>feb-icons: calendar</title>

  <rect class="border" x="0" y="0" width="32" height="32" rx="5" />

  <rect x="7" y="7" width="18" height="18" />
  <polygon points="7 7, 7 11, 25 11, 25 7" />
  <line x1="11" y1="5" x2="11" y2="7" />
  <line x1="21" y1="5" x2="21" y2="7" />

  <line x1="10" y1="13" x2="12" y2="13" />
  <line x1="15" y1="13" x2="17" y2="13" />
  <line x1="20" y1="13" x2="22" y2="13" />

  <line x1="10" y1="17" x2="12" y2="17" />
  <line x1="15" y1="17" x2="17" y2="17" />
  <line x1="20" y1="17" x2="22" y2="17" />

  <line x1="10" y1="21" x2="12" y2="21" />
  <line x1="15" y1="21" x2="17" y2="21" />
  <line x1="20" y1="21" x2="22" y2="21" />

</svg>
