<?xml version="1.0" encoding="UTF-8" standalone="no"?>

<svg xmlns="http://www.w3.org/2000/svg" width="32" height="32">

  <style>
    rect.border {
        fill:none;
        stroke:black;
        stroke-width:1;
    }
    line {
        stroke:black;
        stroke-width:2;
        stroke-linecap:round;
        stroke-linejoin:round;
    }
    path {
        fill:none;
        stroke:black;
        stroke-width:2;
        stroke-linecap:round;
        stroke-linejoin:round;
    }
  </style>

  <title>feb-icons: eye</title>

  <rect class="border" x="0" y="0" width="32" height="32" rx="5" />

  <path d="M 3 16 C 12 8, 20 8, 29 16" />
  <path d="M 3 16 C 12 24, 20 24, 29 16" />

  <circle cx="16" cy="16" r="2" />
  <circle cx="16" cy="16" r="4" stroke="black" stroke-width="1" fill="transparent" />

  <line x1="3" y1="11" x2="5" y2="13" style="stroke-width:1" />
  <line x1="9" y1="7" x2="10" y2="10" style="stroke-width:1" />
  <line x1="16" y1="6" x2="16" y2="9" style="stroke-width:1" />
  <line x1="23" y1="7" x2="22" y2="10" style="stroke-width:1" />
  <line x1="29" y1="11" x2="27" y2="13" style="stroke-width:1" />

  <line x1="3" y1="21" x2="5" y2="19" style="stroke-width:1" />
  <line x1="9" y1="25" x2="10" y2="22" style="stroke-width:1" />
  <line x1="16" y1="26" x2="16" y2="23" style="stroke-width:1" />
  <line x1="23" y1="25" x2="22" y2="22" style="stroke-width:1" />
  <line x1="29" y1="21" x2="27" y2="19" style="stroke-width:1" />

</svg>
